<?xml version="1.0" standalone="yes"?>

<svg version="1.1" viewBox="0.0 0.0 254.17060367454067 230.49606299212599" fill="none" stroke="none" stroke-linecap="square" stroke-miterlimit="10" xmlns="http://www.w3.org/2000/svg" xmlns:xlink="http://www.w3.org/1999/xlink"><clipPath id="p.0"><path d="m0 0l254.17061 0l0 230.49606l-254.17061 0l0 -230.49606z" clip-rule="nonzero"></path></clipPath><g clip-path="url(#p.0)"><path fill="#000000" fill-opacity="0.0" d="m0 0l254.17061 0l0 230.49606l-254.17061 0z" fill-rule="evenodd"></path><path fill="#833336" d="m56.438934 105.42403l0 0c-18.82299 0.66845703 -35.622265 9.770264 -43.586067 23.614822c-7.9638042 13.844543 -5.7704034 30.134094 5.6908236 42.26358c11.461229 12.129471 30.288086 18.08577 48.846684 15.453751l-5.0683174 -23.458878c-9.751484 0.8646393 -19.453117 -1.7894592 -25.22905 -6.9019775c-5.775934 -5.112503 -6.6845646 -11.849976 -2.3628922 -17.520767c4.3216743 -5.6707764 13.169128 -9.350403 23.00776 -9.568848z" fill-rule="evenodd"></path><path stroke="#434343" stroke-width="1.0" stroke-linejoin="round" stroke-linecap="butt" d="m56.438934 105.42403l0 0c-18.82299 0.66845703 -35.622265 9.770264 -43.586067 23.614822c-7.9638042 13.844543 -5.7704034 30.134094 5.6908236 42.26358c11.461229 12.129471 30.288086 18.08577 48.846684 15.453751l-5.0683174 -23.458878c-9.751484 0.8646393 -19.453117 -1.7894592 -25.22905 -6.9019775c-5.775934 -5.112503 -6.6845646 -11.849976 -2.3628922 -17.520767c4.3216743 -5.6707764 13.169128 -9.350403 23.00776 -9.568848z" fill-rule="evenodd"></path><path fill="#c14b4f" fill-opacity="0.7192" d="m35.477486 94.57984l0 0c0 -14.159363 47.51422 -25.637794 106.125984 -25.637794l0 0c58.611755 0 106.12598 11.478432 106.12598 25.637794l0 0c0 14.159363 -47.51422 25.637794 -106.12598 25.637794l0 0c-58.611763 0 -106.125984 -11.478432 -106.125984 -25.637794z" fill-rule="evenodd"></path><path stroke="#434343" stroke-width="1.0" stroke-linejoin="round" stroke-linecap="butt" d="m35.477486 94.57984l0 0c0 -14.159363 47.51422 -25.637794 106.125984 -25.637794l0 0c58.611755 0 106.12598 11.478432 106.12598 25.637794l0 0c0 14.159363 -47.51422 25.637794 -106.12598 25.637794l0 0c-58.611763 0 -106.125984 -11.478432 -106.125984 -25.637794z" fill-rule="evenodd"></path><path fill="#e5e5e1" d="m115.67366 56.61029l30.813766 -7.2570763l7.077835 27.637226l-30.813774 7.25708z" fill-rule="evenodd"></path><path fill="#b7b7b3" d="m146.48743 49.353214l6.8971863 -11.392437l7.077835 27.63723l-6.8971863 11.392433z" fill-rule="evenodd"></path><path fill="#eaeae7" d="m115.67366 56.61029l6.8971863 -11.392437l30.813766 -7.2570763l-6.8971863 11.392437z" fill-rule="evenodd"></path><path fill="#000000" fill-opacity="0.0" d="m115.67366 56.61029l6.8971863 -11.392437l30.813766 -7.2570763l7.077835 27.63723l-6.8971863 11.392433l-30.813774 7.25708zm0 0l30.813766 -7.2570763l6.8971863 -11.392437m-6.8971863 11.392437l7.077835 27.637226" fill-rule="evenodd"></path><path stroke="#000000" stroke-width="1.0" stroke-linejoin="round" stroke-linecap="butt" stroke-dasharray="1.0,3.0" d="m115.67366 56.61029l6.8971863 -11.392437l30.813766 -7.2570763l7.077835 27.63723l-6.8971863 11.392433l-30.813774 7.25708zm0 0l30.813766 -7.2570763l6.8971863 -11.392437m-6.8971863 11.392437l7.077835 27.637226" fill-rule="evenodd"></path><path fill="#e5e5e1" d="m88.70587 69.099266l29.069588 -12.007004l11.75425 26.134598l-29.069588 12.007004z" fill-rule="evenodd"></path><path fill="#b7b7b3" d="m117.77546 57.092262l4.9105377 -12.358135l11.75425 26.134594l-4.9105377 12.358139z" fill-rule="evenodd"></path><path fill="#eaeae7" d="m88.70587 69.099266l4.91053 -12.358131l29.069595 -12.007008l-4.9105377 12.358135z" fill-rule="evenodd"></path><path fill="#000000" fill-opacity="0.0" d="m88.70587 69.099266l4.91053 -12.358131l29.069595 -12.007008l11.75425 26.134594l-4.9105377 12.358139l-29.069588 12.007004zm0 0l29.069588 -12.007004l4.9105377 -12.358135m-4.9105377 12.358135l11.75425 26.134598" fill-rule="evenodd"></path><path stroke="#000000" stroke-width="1.0" stroke-linejoin="round" stroke-linecap="butt" stroke-dasharray="1.0,3.0" d="m88.70587 69.099266l4.91053 -12.358131l29.069595 -12.007008l11.75425 26.134594l-4.9105377 12.358139l-29.069588 12.007004zm0 0l29.069588 -12.007004l4.9105377 -12.358135m-4.9105377 12.358135l11.75425 26.134598" fill-rule="evenodd"></path><path fill="#e5e5e1" d="m141.31276 84.25928l27.90979 -10.5926285l8.847275 21.402l-27.909775 10.5926285z" fill-rule="evenodd"></path><path fill="#b7b7b3" d="m169.22255 73.66665l4.268112 -9.873154l8.84729 21.402l-4.2681274 9.873154z" fill-rule="evenodd"></path><path fill="#eaeae7" d="m141.31276 84.25928l4.2681274 -9.873154l27.909775 -10.5926285l-4.268112 9.873154z" fill-rule="evenodd"></path><path fill="#000000" fill-opacity="0.0" d="m141.31276 84.25928l4.2681274 -9.873154l27.909775 -10.5926285l8.84729 21.402l-4.2681274 9.873154l-27.909775 10.5926285zm0 0l27.90979 -10.5926285l4.268112 -9.873154m-4.268112 9.873154l8.847275 21.402" fill-rule="evenodd"></path><path stroke="#000000" stroke-width="1.0" stroke-linejoin="round" stroke-linecap="butt" stroke-dasharray="1.0,3.0" d="m141.31276 84.25928l4.2681274 -9.873154l27.909775 -10.5926285l8.84729 21.402l-4.2681274 9.873154l-27.909775 10.5926285zm0 0l27.90979 -10.5926285l4.268112 -9.873154m-4.268112 9.873154l8.847275 21.402" fill-rule="evenodd"></path><path fill="#e5e5e1" d="m96.10448 69.383385l30.016373 9.7801285l-9.549454 26.949112l-30.016365 -9.780136z" fill-rule="evenodd"></path><path fill="#b7b7b3" d="m126.12085 79.16351l12.244614 -6.0305634l-9.549438 26.949104l-12.244629 6.030571z" fill-rule="evenodd"></path><path fill="#eaeae7" d="m96.10448 69.383385l12.244621 -6.030567l30.016365 9.780132l-12.244614 6.0305634z" fill-rule="evenodd"></path><path fill="#000000" fill-opacity="0.0" d="m96.10448 69.383385l12.244621 -6.030567l30.016365 9.780132l-9.549438 26.949104l-12.244629 6.030571l-30.016365 -9.780136zm0 0l30.016373 9.7801285l12.244614 -6.0305634m-12.244614 6.0305634l-9.549454 26.949112" fill-rule="evenodd"></path><path stroke="#000000" stroke-width="1.0" stroke-linejoin="round" stroke-linecap="butt" stroke-dasharray="1.0,3.0" d="m96.10448 69.383385l12.244621 -6.030567l30.016365 9.780132l-9.549438 26.949104l-12.244629 6.030571l-30.016365 -9.780136zm0 0l30.016373 9.7801285l12.244614 -6.0305634m-12.244614 6.0305634l-9.549454 26.949112" fill-rule="evenodd"></path><path fill="#e5e5e1" d="m160.13808 93.2305l30.016373 9.7801285l-9.549454 26.949104l-30.016373 -9.7801285z" fill-rule="evenodd"></path><path fill="#b7b7b3" d="m190.15445 103.01063l12.244614 -6.030571l-9.549454 26.949112l-12.244614 6.0305634z" fill-rule="evenodd"></path><path fill="#eaeae7" d="m160.13808 93.2305l12.244614 -6.030571l30.016373 9.7801285l-12.244614 6.030571z" fill-rule="evenodd"></path><path fill="#000000" fill-opacity="0.0" d="m160.13808 93.2305l12.244614 -6.030571l30.016373 9.7801285l-9.549454 26.949112l-12.244614 6.0305634l-30.016373 -9.7801285zm0 0l30.016373 9.7801285l12.244614 -6.030571m-12.244614 6.030571l-9.549454 26.949104" fill-rule="evenodd"></path><path stroke="#000000" stroke-width="1.0" stroke-linejoin="round" stroke-linecap="butt" stroke-dasharray="1.0,3.0" d="m160.13808 93.2305l12.244614 -6.030571l30.016373 9.7801285l-9.549454 26.949112l-12.244614 6.0305634l-30.016373 -9.7801285zm0 0l30.016373 9.7801285l12.244614 -6.030571m-12.244614 6.030571l-9.549454 26.949104" fill-rule="evenodd"></path><path fill="#e5e5e1" d="m129.41498 65.93697l28.798935 9.090576l-8.468109 24.61792l-28.798935 -9.090576z" fill-rule="evenodd"></path><path fill="#b7b7b3" d="m158.21391 75.02755l11.098099 -5.593788l-8.468109 24.617912l-11.098099 5.593796z" fill-rule="evenodd"></path><path fill="#eaeae7" d="m129.41498 65.93697l11.098099 -5.593788l28.798935 9.090576l-11.098099 5.593788z" fill-rule="evenodd"></path><path fill="#000000" fill-opacity="0.0" d="m129.41498 65.93697l11.098099 -5.593788l28.798935 9.090576l-8.468109 24.617912l-11.098099 5.593796l-28.798935 -9.090576zm0 0l28.798935 9.090576l11.098099 -5.593788m-11.098099 5.593788l-8.468109 24.61792" fill-rule="evenodd"></path><path stroke="#000000" stroke-width="1.0" stroke-linejoin="round" stroke-linecap="butt" stroke-dasharray="1.0,3.0" d="m129.41498 65.93697l11.098099 -5.593788l28.798935 9.090576l-8.468109 24.617912l-11.098099 5.593796l-28.798935 -9.090576zm0 0l28.798935 9.090576l11.098099 -5.593788m-11.098099 5.593788l-8.468109 24.61792" fill-rule="evenodd"></path><path fill="#e5e5e1" d="m115.40536 109.7046l30.228294 -9.164886l8.973663 27.11763l-30.228287 9.164879z" fill-rule="evenodd"></path><path fill="#b7b7b3" d="m145.63365 100.53971l6.120468 -11.801773l8.973663 27.11763l-6.120468 11.801773z" fill-rule="evenodd"></path><path fill="#eaeae7" d="m115.40536 109.7046l6.120468 -11.801773l30.228294 -9.164886l-6.120468 11.801773z" fill-rule="evenodd"></path><path fill="#000000" fill-opacity="0.0" d="m115.40536 109.7046l6.120468 -11.801773l30.228294 -9.164886l8.973663 27.11763l-6.120468 11.801773l-30.228287 9.164879zm0 0l30.228294 -9.164886l6.120468 -11.801773m-6.120468 11.801773l8.973663 27.11763" fill-rule="evenodd"></path><path stroke="#000000" stroke-width="1.0" stroke-linejoin="round" stroke-linecap="butt" stroke-dasharray="1.0,3.0" d="m115.40536 109.7046l6.120468 -11.801773l30.228294 -9.164886l8.973663 27.11763l-6.120468 11.801773l-30.228287 9.164879zm0 0l30.228294 -9.164886l6.120468 -11.801773m-6.120468 11.801773l8.973663 27.11763" fill-rule="evenodd"></path><path fill="#e5e5e1" d="m94.51052 46.09338l24.790207 -6.7557297l5.4909363 22.45525l-24.790215 6.7557297z" fill-rule="evenodd"></path><path fill="#b7b7b3" d="m119.30073 39.33765l5.604187 -9.511103l5.4909286 22.455248l-5.6041794 9.511105z" fill-rule="evenodd"></path><path fill="#eaeae7" d="m94.51052 46.09338l5.604187 -9.511101l24.790207 -6.7557316l-5.604187 9.511103z" fill-rule="evenodd"></path><path fill="#000000" fill-opacity="0.0" d="m94.51052 46.09338l5.604187 -9.511101l24.790207 -6.7557316l5.4909286 22.455248l-5.6041794 9.511105l-24.790215 6.7557297zm0 0l24.790207 -6.7557297l5.604187 -9.511103m-5.604187 9.511103l5.4909363 22.45525" fill-rule="evenodd"></path><path stroke="#000000" stroke-width="1.0" stroke-linejoin="round" stroke-linecap="butt" stroke-dasharray="1.0,3.0" d="m94.51052 46.09338l5.604187 -9.511101l24.790207 -6.7557316l5.4909286 22.455248l-5.6041794 9.511105l-24.790215 6.7557297zm0 0l24.790207 -6.7557297l5.604187 -9.511103m-5.604187 9.511103l5.4909363 22.45525" fill-rule="evenodd"></path><path fill="#e5e5e1" d="m75.13619 49.786762l27.156624 3.924038l-4.128731 26.162682l-27.156624 -3.9240417z" fill-rule="evenodd"></path><path fill="#b7b7b3" d="m102.292816 53.7108l10.114311 -7.458271l-4.128731 26.162678l-10.114311 7.458275z" fill-rule="evenodd"></path><path fill="#eaeae7" d="m75.13619 49.786762l10.114311 -7.458275l27.156624 3.9240417l-10.114311 7.458271z" fill-rule="evenodd"></path><path fill="#000000" fill-opacity="0.0" d="m75.13619 49.786762l10.114311 -7.458275l27.156624 3.9240417l-4.128731 26.162678l-10.114311 7.458275l-27.156624 -3.9240417zm0 0l27.156624 3.924038l10.114311 -7.458271m-10.114311 7.458271l-4.128731 26.162682" fill-rule="evenodd"></path><path stroke="#000000" stroke-width="1.0" stroke-linejoin="round" stroke-linecap="butt" stroke-dasharray="1.0,3.0" d="m75.13619 49.786762l10.114311 -7.458275l27.156624 3.9240417l-4.128731 26.162678l-10.114311 7.458275l-27.156624 -3.9240417zm0 0l27.156624 3.924038l10.114311 -7.458271m-10.114311 7.458271l-4.128731 26.162682" fill-rule="evenodd"></path><path fill="#e5e5e1" d="m52.206974 100.14712l21.222729 -21.857101l20.3628 18.18608l-21.222733 21.857101z" fill-rule="evenodd"></path><path fill="#b7b7b3" d="m73.4297 78.290016l-0.44799805 -12.591133l20.3628 18.186089l0.44799805 12.5911255z" fill-rule="evenodd"></path><path fill="#eaeae7" d="m52.206974 100.14712l-0.44799805 -12.5911255l21.222729 -21.85711l0.44799805 12.591133z" fill-rule="evenodd"></path><path fill="#000000" fill-opacity="0.0" d="m52.206974 100.14712l-0.44799805 -12.5911255l21.222729 -21.85711l20.3628 18.186089l0.44799805 12.5911255l-21.222733 21.857101zm0 0l21.222729 -21.857101l-0.44799805 -12.591133m0.44799805 12.591133l20.3628 18.18608" fill-rule="evenodd"></path><path stroke="#000000" stroke-width="1.0" stroke-linejoin="round" stroke-linecap="butt" stroke-dasharray="1.0,3.0" d="m52.206974 100.14712l-0.44799805 -12.5911255l21.222729 -21.85711l20.3628 18.186089l0.44799805 12.5911255l-21.222733 21.857101zm0 0l21.222729 -21.857101l-0.44799805 -12.591133m0.44799805 12.591133l20.3628 18.18608" fill-rule="evenodd"></path><path fill="#e5e5e1" d="m82.338776 99.143326l30.95288 6.755188l-6.614403 27.735535l-30.95288 -6.755188z" fill-rule="evenodd"></path><path fill="#b7b7b3" d="m113.29166 105.89851l11.490669 -7.2186127l-6.614395 27.735527l-11.490677 7.2186203z" fill-rule="evenodd"></path><path fill="#eaeae7" d="m82.338776 99.143326l11.490669 -7.2186203l30.95288 6.7551956l-11.490669 7.2186127z" fill-rule="evenodd"></path><path fill="#000000" fill-opacity="0.0" d="m82.338776 99.143326l11.490669 -7.2186203l30.95288 6.7551956l-6.614395 27.735527l-11.490677 7.2186203l-30.95288 -6.755188zm0 0l30.95288 6.755188l11.490669 -7.2186127m-11.490669 7.2186127l-6.614403 27.735535" fill-rule="evenodd"></path><path stroke="#000000" stroke-width="1.0" stroke-linejoin="round" stroke-linecap="butt" stroke-dasharray="1.0,3.0" d="m82.338776 99.143326l11.490669 -7.2186203l30.95288 6.7551956l-6.614395 27.735527l-11.490677 7.2186203l-30.95288 -6.755188zm0 0l30.95288 6.755188l11.490669 -7.2186127m-11.490669 7.2186127l-6.614403 27.735535" fill-rule="evenodd"></path><path fill="#e5e5e1" d="m99.846664 72.81049l30.221207 2.612053l-1.814331 30.463669l-30.221191 -2.612053z" fill-rule="evenodd"></path><path fill="#b7b7b3" d="m130.06787 75.42255l10.67485 -9.222717l-1.8143158 30.463669l-10.674866 9.222717z" fill-rule="evenodd"></path><path fill="#eaeae7" d="m99.846664 72.81049l10.674866 -9.222721l30.221191 2.6120567l-10.67485 9.222717z" fill-rule="evenodd"></path><path fill="#000000" fill-opacity="0.0" d="m99.846664 72.81049l10.674866 -9.222721l30.221191 2.6120567l-1.8143158 30.463669l-10.674866 9.222717l-30.221191 -2.612053zm0 0l30.221207 2.612053l10.67485 -9.222717m-10.67485 9.222717l-1.814331 30.463669" fill-rule="evenodd"></path><path stroke="#000000" stroke-width="1.0" stroke-linejoin="round" stroke-linecap="butt" stroke-dasharray="1.0,3.0" d="m99.846664 72.81049l10.674866 -9.222721l30.221191 2.6120567l-1.8143158 30.463669l-10.674866 9.222717l-30.221191 -2.612053zm0 0l30.221207 2.612053l10.67485 -9.222717m-10.67485 9.222717l-1.814331 30.463669" fill-rule="evenodd"></path><path fill="#e5e5e1" d="m173.90747 72.2478l26.415466 -5.0415497l5.615753 27.11686l-26.415466 5.0415497z" fill-rule="evenodd"></path><path fill="#b7b7b3" d="m200.32294 67.20625l6.98732 -10.458347l5.615738 27.116863l-6.9873047 10.4583435z" fill-rule="evenodd"></path><path fill="#eaeae7" d="m173.90747 72.2478l6.98732 -10.458351l26.415466 -5.041546l-6.98732 10.458347z" fill-rule="evenodd"></path><path fill="#000000" fill-opacity="0.0" d="m173.90747 72.2478l6.98732 -10.458351l26.415466 -5.041546l5.615738 27.116863l-6.9873047 10.4583435l-26.415466 5.0415497zm0 0l26.415466 -5.0415497l6.98732 -10.458347m-6.98732 10.458347l5.615753 27.11686" fill-rule="evenodd"></path><path stroke="#000000" stroke-width="1.0" stroke-linejoin="round" stroke-linecap="butt" stroke-dasharray="1.0,3.0" d="m173.90747 72.2478l6.98732 -10.458351l26.415466 -5.041546l5.615738 27.116863l-6.9873047 10.4583435l-26.415466 5.0415497zm0 0l26.415466 -5.0415497l6.98732 -10.458347m-6.98732 10.458347l5.615753 27.11686" fill-rule="evenodd"></path><path fill="#e5e5e1" d="m188.6205 107.29849l24.040817 -9.6191635l9.99884 22.90464l-24.040817 9.619156z" fill-rule="evenodd"></path><path fill="#b7b7b3" d="m212.66132 97.67933l4.4015656 -10.729591l9.99884 22.904633l-4.4015656 10.729599z" fill-rule="evenodd"></path><path fill="#eaeae7" d="m188.6205 107.29849l4.4015656 -10.729591l24.040817 -9.6191635l-4.4015656 10.729591z" fill-rule="evenodd"></path><path fill="#000000" fill-opacity="0.0" d="m188.6205 107.29849l4.4015656 -10.729591l24.040817 -9.6191635l9.99884 22.904633l-4.4015656 10.729599l-24.040817 9.619156zm0 0l24.040817 -9.6191635l4.4015656 -10.729591m-4.4015656 10.729591l9.99884 22.90464" fill-rule="evenodd"></path><path stroke="#000000" stroke-width="1.0" stroke-linejoin="round" stroke-linecap="butt" stroke-dasharray="1.0,3.0" d="m188.6205 107.29849l4.4015656 -10.729591l24.040817 -9.6191635l9.99884 22.904633l-4.4015656 10.729599l-24.040817 9.619156zm0 0l24.040817 -9.6191635l4.4015656 -10.729591m-4.4015656 10.729591l9.99884 22.90464" fill-rule="evenodd"></path><path fill="#e5e5e1" d="m163.7612 37.48045l23.60991 8.147182l-8.84729 22.960808l-23.60991 -8.147182z" fill-rule="evenodd"></path><path fill="#b7b7b3" d="m187.37111 45.627632l10.70256 -4.978077l-8.847275 22.960808l-10.702576 4.978077z" fill-rule="evenodd"></path><path fill="#eaeae7" d="m163.7612 37.48045l10.70256 -4.978073l23.60991 8.147179l-10.70256 4.978077z" fill-rule="evenodd"></path><path fill="#000000" fill-opacity="0.0" d="m163.7612 37.48045l10.70256 -4.978073l23.60991 8.147179l-8.847275 22.960808l-10.702576 4.978077l-23.60991 -8.147182zm0 0l23.60991 8.147182l10.70256 -4.978077m-10.70256 4.978077l-8.84729 22.960808" fill-rule="evenodd"></path><path stroke="#000000" stroke-width="1.0" stroke-linejoin="round" stroke-linecap="butt" stroke-dasharray="1.0,3.0" d="m163.7612 37.48045l10.70256 -4.978073l23.60991 8.147179l-8.847275 22.960808l-10.702576 4.978077l-23.60991 -8.147182zm0 0l23.60991 8.147182l10.70256 -4.978077m-10.70256 4.978077l-8.84729 22.960808" fill-rule="evenodd"></path><path fill="#e5e5e1" d="m124.15903 36.258965l22.32042 -18.160894l18.452896 21.472216l-22.320404 18.160892z" fill-rule="evenodd"></path><path fill="#b7b7b3" d="m146.47945 18.09807l1.1693573 -13.113552l18.452911 21.472218l-1.1693726 13.11355z" fill-rule="evenodd"></path><path fill="#eaeae7" d="m124.15903 36.258965l1.1693649 -13.113554l22.320412 -18.160892l-1.1693573 13.113552z" fill-rule="evenodd"></path><path fill="#000000" fill-opacity="0.0" d="m124.15903 36.258965l1.1693649 -13.113554l22.320412 -18.160892l18.452911 21.472218l-1.1693726 13.11355l-22.320404 18.160892zm0 0l22.32042 -18.160894l1.1693573 -13.113552m-1.1693573 13.113552l18.452896 21.472216" fill-rule="evenodd"></path><path stroke="#000000" stroke-width="1.0" stroke-linejoin="round" stroke-linecap="butt" stroke-dasharray="1.0,3.0" d="m124.15903 36.258965l1.1693649 -13.113554l22.320412 -18.160892l18.452911 21.472218l-1.1693726 13.11355l-22.320404 18.160892zm0 0l22.32042 -18.160894l1.1693573 -13.113552m-1.1693573 13.113552l18.452896 21.472216" fill-rule="evenodd"></path><path fill="#e5e5e1" d="m158.13898 95.88787l26.429504 14.787605l-14.160843 26.957657l-26.429504 -14.787605z" fill-rule="evenodd"></path><path fill="#b7b7b3" d="m184.56848 110.675476l13.504471 -4.007843l-14.160858 26.957657l-13.504456 4.007843z" fill-rule="evenodd"></path><path fill="#eaeae7" d="m158.13898 95.88787l13.504471 -4.0078354l26.429504 14.787598l-13.504471 4.007843z" fill-rule="evenodd"></path><path fill="#000000" fill-opacity="0.0" d="m158.13898 95.88787l13.504471 -4.0078354l26.429504 14.787598l-14.160858 26.957657l-13.504456 4.007843l-26.429504 -14.787605zm0 0l26.429504 14.787605l13.504471 -4.007843m-13.504471 4.007843l-14.160843 26.957657" fill-rule="evenodd"></path><path stroke="#000000" stroke-width="1.0" stroke-linejoin="round" stroke-linecap="butt" stroke-dasharray="1.0,3.0" d="m158.13898 95.88787l13.504471 -4.0078354l26.429504 14.787598l-14.160858 26.957657l-13.504456 4.007843l-26.429504 -14.787605zm0 0l26.429504 14.787605l13.504471 -4.007843m-13.504471 4.007843l-14.160843 26.957657" fill-rule="evenodd"></path><path fill="#833336" d="m35.47478 95.69824l0 0c0 71.788315 47.514225 129.98425 106.12599 129.98425c58.611755 0 106.12598 -58.19594 106.12598 -129.98425l0 0c-68.18417 33.009064 -144.06778 33.009064 -212.25197 0z" fill-rule="evenodd"></path><path stroke="#434343" stroke-width="1.0" stroke-linejoin="round" stroke-linecap="butt" d="m35.47478 95.69824l0 0c0 71.788315 47.514225 129.98425 106.12599 129.98425c58.611755 0 106.12598 -58.19594 106.12598 -129.98425l0 0c-68.18417 33.009064 -144.06778 33.009064 -212.25197 0z" fill-rule="evenodd"></path></g></svg>

